<svg id="图层_1" data-name="图层 1" xmlns="http://www.w3.org/2000/svg" viewBox="0 0 132.65 146.65"><title>未标题-2</title><path d="M25.51,26.19v9.24h.56l2.87-2.66,3.5,5.81H25.51V51.46q1.68-.57,3.36-1.26c1.12-.47,2.22-1,3.29-1.47a25.85,25.85,0,0,1-2.66,4.51A36.28,36.28,0,0,1,26,57.34a36.92,36.92,0,0,1-3.74,3.36A21.76,21.76,0,0,1,18.72,63a2.88,2.88,0,0,1-2,.21A1.9,1.9,0,0,1,15.5,62l-3.85-8c.51,0,1.1-.12,1.75-.21s1.33-.19,2-.28v-15h-4L9.83,35.43h5.6V26.19H13.54l-.91-1.61a23,23,0,0,1-4,3.78A53.67,53.67,0,0,0,10,22.72c.45-2.26.84-4.64,1.19-7.14s.63-4.94.84-7.35.37-4.49.46-6.26l9.87,1.82c.65.14,1,.42,1.15.84a2.45,2.45,0,0,1-.1,1.47,24.47,24.47,0,0,1-.91,2.52c-.37.88-.79,1.82-1.26,2.8h4.41l2.94-2.59L32,14.57H19.49A55.71,55.71,0,0,1,13.89,23H24.53l2.94-2.66,3.43,5.81ZM56,20.8V24a56.77,56.77,0,0,1-.7,9.45h9.31l2.87-2.59,3.5,5.74H55.68a43.22,43.22,0,0,0,3.25,5.67,52.37,52.37,0,0,0,3.89,5A39.7,39.7,0,0,0,67,51.35,23.38,23.38,0,0,0,71,54.19l-5.6,7.7A7.23,7.23,0,0,1,64.32,63a3.4,3.4,0,0,1-1.22.66,2,2,0,0,1-1.26-.07,2.64,2.64,0,0,1-1.19-1.08,37.68,37.68,0,0,1-4.38-8.44A75.18,75.18,0,0,1,52.81,42a35.23,35.23,0,0,1-9.27,13.51,49.56,49.56,0,0,1-14.25,8.75A54.1,54.1,0,0,0,39,51.67a56.25,56.25,0,0,0,5.6-15.12H33.42L31.81,33.4h13.3c.23-1.68.42-3.42.56-5.22s.21-3.65.21-5.56V20.8H40.35a55,55,0,0,1-4,6.09,63.61,63.61,0,0,1-4.13,5,109.83,109.83,0,0,0,2.1-12.08c.47-4,.77-8.46.91-13.26l8.12,1.82c1.26.23,1.73,1,1.4,2.38a20.74,20.74,0,0,1-1,3.36c-.47,1.16-1,2.35-1.61,3.57h3.78V1.9L58.69,3.37,56,5.68v12h5.95l2.87-2.59,3.5,5.74Z" transform="translate(-8.64 -1.83)"/><path d="M114.48,42.71v3.08a25.67,25.67,0,0,1-2.38,11.65q-2.38,4.73-5.95,6.34a4.77,4.77,0,0,1-3.22.66,4.08,4.08,0,0,1-2.31-1.57l-6-7.91a15.32,15.32,0,0,0,4.69.1,5.05,5.05,0,0,0,3-1.54,7,7,0,0,0,1.57-3.43,27.65,27.65,0,0,0,.46-5.56V42.71h-24l-1.61-3.15H104.4v-12H83.33l-1.54-3.15H104.4V13.1q-5.59.21-10.89.21T84,13a212.76,212.76,0,0,0,23.14-5,141.24,141.24,0,0,0,17.74-6.12l6.3,5.88a1.2,1.2,0,0,1,.46,1.12,1.08,1.08,0,0,1-.88.84,29.47,29.47,0,0,1-6.48,1.61q-4.36.69-9.83,1.19v11.9h17.43l2.94-2.66,3.43,5.81h-23.8v12h20.44l2.87-2.66,3.5,5.81Z" transform="translate(-8.64 -1.83)"/><path d="M26.09,87.58l-3.36,2.3v.22H62.47l2.8-2.66,3.57,5.81H22.71v49.07H63.87l2.94-2.66,3.43,5.81H22.71v3H12.63V86.11Zm32.25,29v23.53H48.26V116.62h-9a34.62,34.62,0,0,1-3.85,14.71,23.79,23.79,0,0,1-9.71,9.45,26.59,26.59,0,0,0,1.57-4.34,52.25,52.25,0,0,0,1.14-5.57c.33-2.08.57-4.42.74-7s.24-5.53.24-8.75V97.59l13.07,1.53-3.2,2.32v1.33a49,49,0,0,0,5-1.19q2.65-.78,5.25-1.72c1.73-.63,3.37-1.32,4.94-2.07a35.31,35.31,0,0,0,4.16-2.3L65.06,101a1.5,1.5,0,0,1,.59,1c0,.37-.29.67-.94.91A41.28,41.28,0,0,1,59.53,104c-2.05.32-4.24.6-6.55.84s-4.66.42-7.06.56-4.64.21-6.69.21v7.84H62.82l2.94-2.66,3.43,5.8Z" transform="translate(-8.64 -1.83)"/><path d="M78.57,128.67a16.1,16.1,0,0,0,2.73-3.19,40.25,40.25,0,0,0,2.83-4.86,47.81,47.81,0,0,0,2.45-5.88,40.66,40.66,0,0,0,1.65-6.3,44.05,44.05,0,0,1,2,10.25,41.24,41.24,0,0,1-.21,9.17,14.83,14.83,0,0,1-1.89,5.92c-.86,1.3-1.87,1.47-3,.49ZM94.74,98.21l12.81,1.48-2.73,2.38v35.42a3.51,3.51,0,0,0,.52,2,2,2,0,0,0,1.79.77h5.74a9.72,9.72,0,0,0,3.18-.46,3.69,3.69,0,0,0,2-1.71,8.48,8.48,0,0,0,.92-3.57,43.22,43.22,0,0,0-.11-6.09l7.7,2a3.34,3.34,0,0,1,2.24,1.68,5.87,5.87,0,0,1,.14,3.22,23.48,23.48,0,0,1-1.51,6,10.65,10.65,0,0,1-2.55,3.78,9,9,0,0,1-3.68,2,18.23,18.23,0,0,1-4.93.6H102.58a8.45,8.45,0,0,1-2.91-.53,7.41,7.41,0,0,1-2.52-1.54A7.63,7.63,0,0,1,95.4,143a9.43,9.43,0,0,1-.66-3.67Zm19.46,8.13a26.47,26.47,0,0,0-1.82-5,52.39,52.39,0,0,0-3.12-5.75c-1.19-1.91-2.43-3.72-3.74-5.42a22.92,22.92,0,0,0-3.71-4,61.23,61.23,0,0,1,10,3.78,31.72,31.72,0,0,1,6.41,4,9.2,9.2,0,0,1,2.91,3.67,2.63,2.63,0,0,1-.46,2.84Zm17.57,26.25a31.57,31.57,0,0,0-.42-5.47q-.49-3.34-1.33-6.92a62.2,62.2,0,0,0-2-6.86A23.35,23.35,0,0,0,125.4,108a46.07,46.07,0,0,1,8.75,6.09,26.27,26.27,0,0,1,5,5.81,9.85,9.85,0,0,1,1.61,4.83,3.51,3.51,0,0,1-1.4,3.08Z" transform="translate(-8.64 -1.83)"/></svg>